<svg aria-roledescription="flowchart-v2" role="graphics-document document" viewBox="-8 -8 794.5 774" style="max-width: 794.5px;" xmlns="http://www.w3.org/2000/svg" width="794.5" id="svg" xmlns:xlink="http://www.w3.org/1999/xlink" height="774"><style>#svg{font-family:"trebuchet ms",verdana,arial,sans-serif;font-size:16px;fill:#333;}#svg .error-icon{fill:#552222;}#svg .error-text{fill:#552222;stroke:#552222;}#svg .edge-thickness-normal{stroke-width:2px;}#svg .edge-thickness-thick{stroke-width:3.5px;}#svg .edge-pattern-solid{stroke-dasharray:0;}#svg .edge-pattern-dashed{stroke-dasharray:3;}#svg .edge-pattern-dotted{stroke-dasharray:2;}#svg .marker{fill:#333333;stroke:#333333;}#svg .marker.cross{stroke:#333333;}#svg svg{font-family:"trebuchet ms",verdana,arial,sans-serif;font-size:16px;}#svg .label{font-family:"trebuchet ms",verdana,arial,sans-serif;color:#333;}#svg .cluster-label text{fill:#333;}#svg .cluster-label span,#svg p{color:#333;}#svg .label text,#svg span,#svg p{fill:#333;color:#333;}#svg .node rect,#svg .node circle,#svg .node ellipse,#svg .node polygon,#svg .node path{fill:#ECECFF;stroke:#9370DB;stroke-width:1px;}#svg .flowchart-label text{text-anchor:middle;}#svg .node .katex path{fill:#000;stroke:#000;stroke-width:1px;}#svg .node .label{text-align:center;}#svg .node.clickable{cursor:pointer;}#svg .arrowheadPath{fill:#333333;}#svg .edgePath .path{stroke:#333333;stroke-width:2.0px;}#svg .flowchart-link{stroke:#333333;fill:none;}#svg .edgeLabel{background-color:#e8e8e8;text-align:center;}#svg .edgeLabel rect{opacity:0.5;background-color:#e8e8e8;fill:#e8e8e8;}#svg .labelBkg{background-color:rgba(232, 232, 232, 0.5);}#svg .cluster rect{fill:#ffffde;stroke:#aaaa33;stroke-width:1px;}#svg .cluster text{fill:#333;}#svg .cluster span,#svg p{color:#333;}#svg div.mermaidTooltip{position:absolute;text-align:center;max-width:200px;padding:2px;font-family:"trebuchet ms",verdana,arial,sans-serif;font-size:12px;background:hsl(80, 100%, 96.2745098039%);border:1px solid #aaaa33;border-radius:2px;pointer-events:none;z-index:100;}#svg .flowchartTitleText{text-anchor:middle;font-size:18px;fill:#333;}#svg .today{display:none;}#svg .label foreignObject{overflow:visible;}#svg :root{--mermaid-font-family:"trebuchet ms",verdana,arial,sans-serif;}</style><g><marker orient="auto" markerHeight="12" markerWidth="12" markerUnits="userSpaceOnUse" refY="5" refX="6" viewBox="0 0 10 10" class="marker flowchart" id="svg_flowchart-pointEnd"><path style="stroke-width: 1; stroke-dasharray: 1, 0;" class="arrowMarkerPath" d="M 0 0 L 10 5 L 0 10 z"></path></marker><marker orient="auto" markerHeight="12" markerWidth="12" markerUnits="userSpaceOnUse" refY="5" refX="4.5" viewBox="0 0 10 10" class="marker flowchart" id="svg_flowchart-pointStart"><path style="stroke-width: 1; stroke-dasharray: 1, 0;" class="arrowMarkerPath" d="M 0 5 L 10 10 L 10 0 z"></path></marker><marker orient="auto" markerHeight="11" markerWidth="11" markerUnits="userSpaceOnUse" refY="5" refX="11" viewBox="0 0 10 10" class="marker flowchart" id="svg_flowchart-circleEnd"><circle style="stroke-width: 1; stroke-dasharray: 1, 0;" class="arrowMarkerPath" r="5" cy="5" cx="5"></circle></marker><marker orient="auto" markerHeight="11" markerWidth="11" markerUnits="userSpaceOnUse" refY="5" refX="-1" viewBox="0 0 10 10" class="marker flowchart" id="svg_flowchart-circleStart"><circle style="stroke-width: 1; stroke-dasharray: 1, 0;" class="arrowMarkerPath" r="5" cy="5" cx="5"></circle></marker><marker orient="auto" markerHeight="11" markerWidth="11" markerUnits="userSpaceOnUse" refY="5.2" refX="12" viewBox="0 0 11 11" class="marker cross flowchart" id="svg_flowchart-crossEnd"><path style="stroke-width: 2; stroke-dasharray: 1, 0;" class="arrowMarkerPath" d="M 1,1 l 9,9 M 10,1 l -9,9"></path></marker><marker orient="auto" markerHeight="11" markerWidth="11" markerUnits="userSpaceOnUse" refY="5.2" refX="-1" viewBox="0 0 11 11" class="marker cross flowchart" id="svg_flowchart-crossStart"><path style="stroke-width: 2; stroke-dasharray: 1, 0;" class="arrowMarkerPath" d="M 1,1 l 9,9 M 10,1 l -9,9"></path></marker><g class="root"><g class="clusters"></g><g class="edgePaths"><path marker-end="url(#svg_flowchart-pointEnd)" style="fill:none;" class="edge-thickness-normal edge-pattern-solid flowchart-link LS-A LE-B" id="L-A-B-0" d="M392,36L392,40.167C392,44.333,392,52.667,392,60.117C392,67.567,392,74.133,392,77.417L392,80.7"></path><path marker-end="url(#svg_flowchart-pointEnd)" style="fill:none;" class="edge-thickness-normal edge-pattern-solid flowchart-link LS-B LE-C" id="L-B-C-0" d="M392,120L392,124.167C392,128.333,392,136.667,392,144.117C392,151.567,392,158.133,392,161.417L392,164.7"></path><path marker-end="url(#svg_flowchart-pointEnd)" style="fill:none;" class="edge-thickness-normal edge-pattern-solid flowchart-link LS-C LE-D1" id="L-C-D1-0" d="M288.5,202.609L259.333,207.007C230.167,211.406,171.833,220.203,142.667,227.885C113.5,235.567,113.5,242.133,113.5,245.417L113.5,248.7"></path><path marker-end="url(#svg_flowchart-pointEnd)" style="fill:none;" class="edge-thickness-normal edge-pattern-solid flowchart-link LS-C LE-D2" id="L-C-D2-0" d="M392,204L392,208.167C392,212.333,392,220.667,392,228.117C392,235.567,392,242.133,392,245.417L392,248.7"></path><path marker-end="url(#svg_flowchart-pointEnd)" style="fill:none;" class="edge-thickness-normal edge-pattern-solid flowchart-link LS-C LE-D3" id="L-C-D3-0" d="M495.5,203.849L521.25,208.041C547,212.233,598.5,220.616,624.25,233.558C650,246.5,650,264,650,281.5C650,299,650,316.5,650,328.533C650,340.567,650,347.133,650,350.417L650,353.7"></path><path marker-end="url(#svg_flowchart-pointEnd)" style="fill:none;" class="edge-thickness-normal edge-pattern-solid flowchart-link LS-D2 LE-E1" id="L-D2-E1-0" d="M392,309L392,313.167C392,317.333,392,325.667,392,334.7C392,343.733,392,353.467,392,358.333L392,363.2"></path><path marker-end="url(#svg_flowchart-pointEnd)" style="fill:none;" class="edge-thickness-normal edge-pattern-solid flowchart-link LS-E1 LE-E2" id="L-E1-E2-0" d="M392,404.5L392,410.25C392,416,392,427.5,392,436.533C392,445.567,392,452.133,392,455.417L392,458.7"></path><path marker-end="url(#svg_flowchart-pointEnd)" style="fill:none;" class="edge-thickness-normal edge-pattern-solid flowchart-link LS-E2 LE-E3" id="L-E2-E3-0" d="M392,500L392,504.167C392,508.333,392,516.667,392,524.117C392,531.567,392,538.133,392,541.417L392,544.7"></path><path marker-end="url(#svg_flowchart-pointEnd)" style="fill:none;" class="edge-thickness-normal edge-pattern-solid flowchart-link LS-E3 LE-E4" id="L-E3-E4-0" d="M392,586L392,590.167C392,594.333,392,602.667,392,610.117C392,617.567,392,624.133,392,627.417L392,630.7"></path><path marker-end="url(#svg_flowchart-pointEnd)" style="fill:none;" class="edge-thickness-normal edge-pattern-solid flowchart-link LS-D3 LE-F1" id="L-D3-F1-0" d="M650,414L650,418.167C650,422.333,650,430.667,650,438.117C650,445.567,650,452.133,650,455.417L650,458.7"></path><path marker-end="url(#svg_flowchart-pointEnd)" style="fill:none;" class="edge-thickness-normal edge-pattern-solid flowchart-link LS-F1 LE-F2" id="L-F1-F2-0" d="M650,500L650,504.167C650,508.333,650,516.667,650,524.117C650,531.567,650,538.133,650,541.417L650,544.7"></path><path marker-end="url(#svg_flowchart-pointEnd)" style="fill:none;" class="edge-thickness-normal edge-pattern-solid flowchart-link LS-F2 LE-F3" id="L-F2-F3-0" d="M650,586L650,590.167C650,594.333,650,602.667,650,610.117C650,617.567,650,624.133,650,627.417L650,630.7"></path><path marker-end="url(#svg_flowchart-pointEnd)" style="fill:none;" class="edge-thickness-normal edge-pattern-solid flowchart-link LS-E4 LE-G" id="L-E4-G-0" d="M392,672L392,676.167C392,680.333,392,688.667,403.662,696.721C415.324,704.775,438.648,712.549,450.31,716.437L461.972,720.324"></path><path marker-end="url(#svg_flowchart-pointEnd)" style="fill:none;" class="edge-thickness-normal edge-pattern-solid flowchart-link LS-F3 LE-G" id="L-F3-G-0" d="M650,672L650,676.167C650,680.333,650,688.667,638.338,696.721C626.676,704.775,603.352,712.549,591.69,716.437L580.028,720.324"></path></g><g class="edgeLabels"><g class="edgeLabel"><g transform="translate(0, 0)" class="label"><foreignObject height="0" width="0"><div style="display: inline-block; white-space: nowrap;" xmlns="http://www.w3.org/1999/xhtml"><span class="edgeLabel"></span></div></foreignObject></g></g><g class="edgeLabel"><g transform="translate(0, 0)" class="label"><foreignObject height="0" width="0"><div style="display: inline-block; white-space: nowrap;" xmlns="http://www.w3.org/1999/xhtml"><span class="edgeLabel"></span></div></foreignObject></g></g><g class="edgeLabel"><g transform="translate(0, 0)" class="label"><foreignObject height="0" width="0"><div style="display: inline-block; white-space: nowrap;" xmlns="http://www.w3.org/1999/xhtml"><span class="edgeLabel"></span></div></foreignObject></g></g><g class="edgeLabel"><g transform="translate(0, 0)" class="label"><foreignObject height="0" width="0"><div style="display: inline-block; white-space: nowrap;" xmlns="http://www.w3.org/1999/xhtml"><span class="edgeLabel"></span></div></foreignObject></g></g><g class="edgeLabel"><g transform="translate(0, 0)" class="label"><foreignObject height="0" width="0"><div style="display: inline-block; white-space: nowrap;" xmlns="http://www.w3.org/1999/xhtml"><span class="edgeLabel"></span></div></foreignObject></g></g><g class="edgeLabel"><g transform="translate(0, 0)" class="label"><foreignObject height="0" width="0"><div style="display: inline-block; white-space: nowrap;" xmlns="http://www.w3.org/1999/xhtml"><span class="edgeLabel"></span></div></foreignObject></g></g><g class="edgeLabel"><g transform="translate(0, 0)" class="label"><foreignObject height="0" width="0"><div style="display: inline-block; white-space: nowrap;" xmlns="http://www.w3.org/1999/xhtml"><span class="edgeLabel"></span></div></foreignObject></g></g><g class="edgeLabel"><g transform="translate(0, 0)" class="label"><foreignObject height="0" width="0"><div style="display: inline-block; white-space: nowrap;" xmlns="http://www.w3.org/1999/xhtml"><span class="edgeLabel"></span></div></foreignObject></g></g><g class="edgeLabel"><g transform="translate(0, 0)" class="label"><foreignObject height="0" width="0"><div style="display: inline-block; white-space: nowrap;" xmlns="http://www.w3.org/1999/xhtml"><span class="edgeLabel"></span></div></foreignObject></g></g><g class="edgeLabel"><g transform="translate(0, 0)" class="label"><foreignObject height="0" width="0"><div style="display: inline-block; white-space: nowrap;" xmlns="http://www.w3.org/1999/xhtml"><span class="edgeLabel"></span></div></foreignObject></g></g><g class="edgeLabel"><g transform="translate(0, 0)" class="label"><foreignObject height="0" width="0"><div style="display: inline-block; white-space: nowrap;" xmlns="http://www.w3.org/1999/xhtml"><span class="edgeLabel"></span></div></foreignObject></g></g><g class="edgeLabel"><g transform="translate(0, 0)" class="label"><foreignObject height="0" width="0"><div style="display: inline-block; white-space: nowrap;" xmlns="http://www.w3.org/1999/xhtml"><span class="edgeLabel"></span></div></foreignObject></g></g><g class="edgeLabel"><g transform="translate(0, 0)" class="label"><foreignObject height="0" width="0"><div style="display: inline-block; white-space: nowrap;" xmlns="http://www.w3.org/1999/xhtml"><span class="edgeLabel"></span></div></foreignObject></g></g><g class="edgeLabel"><g transform="translate(0, 0)" class="label"><foreignObject height="0" width="0"><div style="display: inline-block; white-space: nowrap;" xmlns="http://www.w3.org/1999/xhtml"><span class="edgeLabel"></span></div></foreignObject></g></g></g><g class="nodes"><g transform="translate(392, 18)" data-id="A" data-node="true" id="flowchart-A-0" class="node default default flowchart-label"><rect height="36" width="129" y="-18" x="-64.5" ry="0" rx="0" style="" class="basic label-container"></rect><g transform="translate(-57, -10.5)" style="" class="label"><rect></rect><foreignObject height="21" width="114"><div style="display: inline-block; white-space: nowrap;" xmlns="http://www.w3.org/1999/xhtml"><span class="nodeLabel">运行 main 方法</span></div></foreignObject></g></g><g transform="translate(392, 103)" data-id="B" data-node="true" id="flowchart-B-1" class="node default default flowchart-label"><rect height="34" width="186" y="-17" x="-93" ry="0" rx="0" style="" class="basic label-container"></rect><g transform="translate(-85.5, -9.5)" style="" class="label"><rect></rect><foreignObject height="19" width="171"><div style="display: inline-block; white-space: nowrap;" xmlns="http://www.w3.org/1999/xhtml"><span class="nodeLabel">SpringApplication.run</span></div></foreignObject></g></g><g transform="translate(392, 187)" data-id="C" data-node="true" id="flowchart-C-3" class="node default default flowchart-label"><rect height="34" width="207" y="-17" x="-103.5" ry="0" rx="0" style="" class="basic label-container"></rect><g transform="translate(-96, -9.5)" style="" class="label"><rect></rect><foreignObject height="19" width="192"><div style="display: inline-block; white-space: nowrap;" xmlns="http://www.w3.org/1999/xhtml"><span class="nodeLabel">@SpringBootApplication</span></div></foreignObject></g></g><g transform="translate(113.5, 281.5)" data-id="D1" data-node="true" id="flowchart-D1-5" class="node default default flowchart-label"><rect height="55" width="227" y="-27.5" x="-113.5" ry="0" rx="0" style="" class="basic label-container"></rect><g transform="translate(-106, -20)" style="" class="label"><rect></rect><foreignObject height="40" width="212"><div style="display: inline-block; white-space: nowrap;" xmlns="http://www.w3.org/1999/xhtml"><span class="nodeLabel">@SpringBootConfiguration<br/>标识配置类</span></div></foreignObject></g></g><g transform="translate(392, 281.5)" data-id="D2" data-node="true" id="flowchart-D2-7" class="node default default flowchart-label"><rect height="55" width="230" y="-27.5" x="-115" ry="0" rx="0" style="" class="basic label-container"></rect><g transform="translate(-107.5, -20)" style="" class="label"><rect></rect><foreignObject height="40" width="215"><div style="display: inline-block; white-space: nowrap;" xmlns="http://www.w3.org/1999/xhtml"><span class="nodeLabel">@EnableAutoConfiguration<br/>自动配置</span></div></foreignObject></g></g><g transform="translate(650, 386.5)" data-id="D3" data-node="true" id="flowchart-D3-9" class="node default default flowchart-label"><rect height="55" width="163" y="-27.5" x="-81.5" ry="0" rx="0" style="" class="basic label-container"></rect><g transform="translate(-74, -20)" style="" class="label"><rect></rect><foreignObject height="40" width="148"><div style="display: inline-block; white-space: nowrap;" xmlns="http://www.w3.org/1999/xhtml"><span class="nodeLabel">@ComponentScan<br/>组件扫描</span></div></foreignObject></g></g><g transform="translate(392, 386.5)" data-id="E1" data-node="true" id="flowchart-E1-11" class="node default default flowchart-label"><rect height="36" width="164" y="-18" x="-82" ry="0" rx="0" style="" class="basic label-container"></rect><g transform="translate(-74.5, -10.5)" style="" class="label"><rect></rect><foreignObject height="21" width="149"><div style="display: inline-block; white-space: nowrap;" xmlns="http://www.w3.org/1999/xhtml"><span class="nodeLabel">扫描 classpath 依赖</span></div></foreignObject></g></g><g transform="translate(392, 482)" data-id="E2" data-node="true" id="flowchart-E2-13" class="node default default flowchart-label"><rect height="36" width="176" y="-18" x="-88" ry="0" rx="0" style="" class="basic label-container"></rect><g transform="translate(-80.5, -10.5)" style="" class="label"><rect></rect><foreignObject height="21" width="161"><div style="display: inline-block; white-space: nowrap;" xmlns="http://www.w3.org/1999/xhtml"><span class="nodeLabel">读取 spring.factories</span></div></foreignObject></g></g><g transform="translate(392, 568)" data-id="E3" data-node="true" id="flowchart-E3-15" class="node default default flowchart-label"><rect height="36" width="159" y="-18" x="-79.5" ry="0" rx="0" style="" class="basic label-container"></rect><g transform="translate(-72, -10.5)" style="" class="label"><rect></rect><foreignObject height="21" width="144"><div style="display: inline-block; white-space: nowrap;" xmlns="http://www.w3.org/1999/xhtml"><span class="nodeLabel">根据条件过滤配置类</span></div></foreignObject></g></g><g transform="translate(392, 654)" data-id="E4" data-node="true" id="flowchart-E4-17" class="node default default flowchart-label"><rect height="36" width="146" y="-18" x="-73" ry="0" rx="0" style="" class="basic label-container"></rect><g transform="translate(-65.5, -10.5)" style="" class="label"><rect></rect><foreignObject height="21" width="131"><div style="display: inline-block; white-space: nowrap;" xmlns="http://www.w3.org/1999/xhtml"><span class="nodeLabel">创建 Bean 到容器</span></div></foreignObject></g></g><g transform="translate(650, 482)" data-id="F1" data-node="true" id="flowchart-F1-19" class="node default default flowchart-label"><rect height="36" width="143" y="-18" x="-71.5" ry="0" rx="0" style="" class="basic label-container"></rect><g transform="translate(-64, -10.5)" style="" class="label"><rect></rect><foreignObject height="21" width="128"><div style="display: inline-block; white-space: nowrap;" xmlns="http://www.w3.org/1999/xhtml"><span class="nodeLabel">扫描当前包及子包</span></div></foreignObject></g></g><g transform="translate(650, 568)" data-id="F2" data-node="true" id="flowchart-F2-21" class="node default default flowchart-label"><rect height="36" width="257" y="-18" x="-128.5" ry="0" rx="0" style="" class="basic label-container"></rect><g transform="translate(-121, -10.5)" style="" class="label"><rect></rect><foreignObject height="21" width="242"><div style="display: inline-block; white-space: nowrap;" xmlns="http://www.w3.org/1999/xhtml"><span class="nodeLabel">发现@Component/@Service 等</span></div></foreignObject></g></g><g transform="translate(650, 654)" data-id="F3" data-node="true" id="flowchart-F3-23" class="node default default flowchart-label"><rect height="36" width="109" y="-18" x="-54.5" ry="0" rx="0" style="" class="basic label-container"></rect><g transform="translate(-47, -10.5)" style="" class="label"><rect></rect><foreignObject height="21" width="94"><div style="display: inline-block; white-space: nowrap;" xmlns="http://www.w3.org/1999/xhtml"><span class="nodeLabel">注册为 Bean</span></div></foreignObject></g></g><g transform="translate(521, 740)" data-id="G" data-node="true" id="flowchart-G-25" class="node default default flowchart-label"><rect height="36" width="183" y="-18" x="-91.5" ry="0" rx="0" style="" class="basic label-container"></rect><g transform="translate(-84, -10.5)" style="" class="label"><rect></rect><foreignObject height="21" width="168"><div style="display: inline-block; white-space: nowrap;" xmlns="http://www.w3.org/1999/xhtml"><span class="nodeLabel">Spring 容器初始化完成</span></div></foreignObject></g></g></g></g></g></svg>