<?xml version="1.0" encoding="us-ascii" standalone="no"?><svg xmlns="http://www.w3.org/2000/svg" xmlns:xlink="http://www.w3.org/1999/xlink" contentStyleType="text/css" height="428px" preserveAspectRatio="none" style="width:1793px;height:428px;background:#FFFFFF;" version="1.1" viewBox="0 0 1793 428" width="1793px" zoomAndPan="magnify"><defs/><g><text fill="#000000" font-family="Arial" font-size="14" font-weight="bold" lengthAdjust="spacing" textLength="246" x="766.5" y="22.9951">Spring MVC &#35270;&#22270;&#26426;&#21046;&#26680;&#24515;&#31867;&#19982;&#25509;&#21475;</text><g id="elem_ViewResolver"><rect codeLine="9" fill="#F1F1F1" height="59.9688" id="ViewResolver" rx="2.5" ry="2.5" style="stroke:#181818;stroke-width:0.5;" width="483" x="214.5" y="361.2969"/><ellipse cx="411.5" cy="376.2969" fill="#B4A7E5" rx="10" ry="10" style="stroke:#181818;stroke-width:1.0;"/><path d="M408.5156,373.5781 L408.5156,372.0469 L413.7188,372.0469 L413.7188,373.5781 L411.9844,373.5781 L411.9844,379.2656 L413.7188,379.2656 L413.7188,380.7969 L408.5156,380.7969 L408.5156,379.2656 L410.25,379.2656 L410.25,373.5781 L408.5156,373.5781 Z " fill="#000000"/><text fill="#000000" font-family="Arial" font-size="12" font-style="italic" lengthAdjust="spacing" textLength="81" x="430.5" y="380.4512">ViewResolver</text><line style="stroke:#181818;stroke-width:0.5;" x1="215.5" x2="696.5" y1="391.2969" y2="391.2969"/><line style="stroke:#181818;stroke-width:0.5;" x1="215.5" x2="696.5" y1="399.2969" y2="399.2969"/><ellipse cx="225.5" cy="411.7813" fill="#84BE84" rx="3" ry="3" style="stroke:#038048;stroke-width:1.0;"/><text fill="#000000" font-family="Arial" font-size="12" lengthAdjust="spacing" textLength="458" x="233.5" y="414.4355">View resolveViewName(String viewName, Locale locale) throws Exception;</text></g><g id="elem_View"><rect codeLine="13" fill="#F1F1F1" height="59.9688" id="View" rx="2.5" ry="2.5" style="stroke:#181818;stroke-width:0.5;" width="746" x="1040" y="361.2969"/><ellipse cx="1395" cy="376.2969" fill="#B4A7E5" rx="10" ry="10" style="stroke:#181818;stroke-width:1.0;"/><path d="M1392.0156,373.5781 L1392.0156,372.0469 L1397.2188,372.0469 L1397.2188,373.5781 L1395.4844,373.5781 L1395.4844,379.2656 L1397.2188,379.2656 L1397.2188,380.7969 L1392.0156,380.7969 L1392.0156,379.2656 L1393.75,379.2656 L1393.75,373.5781 L1392.0156,373.5781 Z " fill="#000000"/><text fill="#000000" font-family="Arial" font-size="12" font-style="italic" lengthAdjust="spacing" textLength="28" x="1414" y="380.4512">View</text><line style="stroke:#181818;stroke-width:0.5;" x1="1041" x2="1785" y1="391.2969" y2="391.2969"/><line style="stroke:#181818;stroke-width:0.5;" x1="1041" x2="1785" y1="399.2969" y2="399.2969"/><ellipse cx="1051" cy="411.7813" fill="#84BE84" rx="3" ry="3" style="stroke:#038048;stroke-width:1.0;"/><text fill="#000000" font-family="Arial" font-size="12" lengthAdjust="spacing" textLength="721" x="1059" y="414.4355">void render(Map&lt;String, ?&gt; model, HttpServletRequest request, HttpServletResponse response) throws Exception;</text></g><g id="elem_ThymeleafViewResolver"><rect codeLine="18" fill="#F1F1F1" height="59.9688" id="ThymeleafViewResolver" rx="2.5" ry="2.5" style="stroke:#181818;stroke-width:0.5;" width="276" x="318" y="219.2969"/><ellipse cx="380" cy="234.2969" fill="#ADD1B2" rx="10" ry="10" style="stroke:#181818;stroke-width:1.0;"/><path d="M381.8281,238.5469 Q381.4219,238.75 380.9688,238.8594 Q380.5156,238.9688 380.0313,238.9688 Q378.25,238.9688 377.3125,237.8125 Q376.3906,236.6406 376.3906,234.4375 Q376.3906,232.2188 377.3125,231.0625 Q378.25,229.8906 380.0313,229.8906 Q380.5156,229.8906 380.9688,230 Q381.4375,230.0938 381.8281,230.3125 L381.8281,232.2344 Q381.3906,231.8281 380.9688,231.6406 Q380.5469,231.4375 380.1094,231.4375 Q379.1563,231.4375 378.6719,232.2031 Q378.1875,232.9531 378.1875,234.4375 Q378.1875,235.9063 378.6719,236.6563 Q379.1563,237.4063 380.1094,237.4063 Q380.5469,237.4063 380.9688,237.2188 Q381.3906,237.0313 381.8281,236.625 L381.8281,238.5469 Z " fill="#000000"/><text fill="#000000" font-family="Arial" font-size="12" lengthAdjust="spacing" textLength="144" x="399" y="238.4512">ThymeleafViewResolver</text><line style="stroke:#181818;stroke-width:0.5;" x1="319" x2="593" y1="249.2969" y2="249.2969"/><line style="stroke:#181818;stroke-width:0.5;" x1="319" x2="593" y1="257.2969" y2="257.2969"/><ellipse cx="329" cy="269.7813" fill="#84BE84" rx="3" ry="3" style="stroke:#038048;stroke-width:1.0;"/><text fill="#000000" font-family="Arial" font-size="12" lengthAdjust="spacing" textLength="251" x="337" y="272.4355">View resolveViewName(...) // &#23454;&#29616;&#25509;&#21475;&#26041;&#27861;</text></g><g id="elem_InternalResourceViewResolver"><rect codeLine="22" fill="#F1F1F1" height="59.9688" id="InternalResourceViewResolver" rx="2.5" ry="2.5" style="stroke:#181818;stroke-width:0.5;" width="276" x="7" y="219.2969"/><ellipse cx="47.1" cy="234.2969" fill="#ADD1B2" rx="10" ry="10" style="stroke:#181818;stroke-width:1.0;"/><path d="M48.9281,238.5469 Q48.5219,238.75 48.0688,238.8594 Q47.6156,238.9688 47.1313,238.9688 Q45.35,238.9688 44.4125,237.8125 Q43.4906,236.6406 43.4906,234.4375 Q43.4906,232.2188 44.4125,231.0625 Q45.35,229.8906 47.1313,229.8906 Q47.6156,229.8906 48.0688,230 Q48.5375,230.0938 48.9281,230.3125 L48.9281,232.2344 Q48.4906,231.8281 48.0688,231.6406 Q47.6469,231.4375 47.2094,231.4375 Q46.2563,231.4375 45.7719,232.2031 Q45.2875,232.9531 45.2875,234.4375 Q45.2875,235.9063 45.7719,236.6563 Q46.2563,237.4063 47.2094,237.4063 Q47.6469,237.4063 48.0688,237.2188 Q48.4906,237.0313 48.9281,236.625 L48.9281,238.5469 Z " fill="#000000"/><text fill="#000000" font-family="Arial" font-size="12" lengthAdjust="spacing" textLength="188" x="65.9" y="238.4512">InternalResourceViewResolver</text><line style="stroke:#181818;stroke-width:0.5;" x1="8" x2="282" y1="249.2969" y2="249.2969"/><line style="stroke:#181818;stroke-width:0.5;" x1="8" x2="282" y1="257.2969" y2="257.2969"/><ellipse cx="18" cy="269.7813" fill="#84BE84" rx="3" ry="3" style="stroke:#038048;stroke-width:1.0;"/><text fill="#000000" font-family="Arial" font-size="12" lengthAdjust="spacing" textLength="251" x="26" y="272.4355">View resolveViewName(...) // &#23454;&#29616;&#25509;&#21475;&#26041;&#27861;</text></g><g id="elem_ThymeleafView"><rect codeLine="26" fill="#F1F1F1" height="59.9688" id="ThymeleafView" rx="2.5" ry="2.5" style="stroke:#181818;stroke-width:0.5;" width="206" x="1310" y="219.2969"/><ellipse cx="1363.5" cy="234.2969" fill="#ADD1B2" rx="10" ry="10" style="stroke:#181818;stroke-width:1.0;"/><path d="M1365.3281,238.5469 Q1364.9219,238.75 1364.4688,238.8594 Q1364.0156,238.9688 1363.5313,238.9688 Q1361.75,238.9688 1360.8125,237.8125 Q1359.8906,236.6406 1359.8906,234.4375 Q1359.8906,232.2188 1360.8125,231.0625 Q1361.75,229.8906 1363.5313,229.8906 Q1364.0156,229.8906 1364.4688,230 Q1364.9375,230.0938 1365.3281,230.3125 L1365.3281,232.2344 Q1364.8906,231.8281 1364.4688,231.6406 Q1364.0469,231.4375 1363.6094,231.4375 Q1362.6563,231.4375 1362.1719,232.2031 Q1361.6875,232.9531 1361.6875,234.4375 Q1361.6875,235.9063 1362.1719,236.6563 Q1362.6563,237.4063 1363.6094,237.4063 Q1364.0469,237.4063 1364.4688,237.2188 Q1364.8906,237.0313 1365.3281,236.625 L1365.3281,238.5469 Z " fill="#000000"/><text fill="#000000" font-family="Arial" font-size="12" lengthAdjust="spacing" textLength="91" x="1382.5" y="238.4512">ThymeleafView</text><line style="stroke:#181818;stroke-width:0.5;" x1="1311" x2="1515" y1="249.2969" y2="249.2969"/><line style="stroke:#181818;stroke-width:0.5;" x1="1311" x2="1515" y1="257.2969" y2="257.2969"/><ellipse cx="1321" cy="269.7813" fill="#84BE84" rx="3" ry="3" style="stroke:#038048;stroke-width:1.0;"/><text fill="#000000" font-family="Arial" font-size="12" lengthAdjust="spacing" textLength="181" x="1329" y="272.4355">void render(...) // &#23454;&#29616;&#25509;&#21475;&#26041;&#27861;</text></g><g id="elem_InternalResourceView"><rect codeLine="30" fill="#F1F1F1" height="59.9688" id="InternalResourceView" rx="2.5" ry="2.5" style="stroke:#181818;stroke-width:0.5;" width="206" x="1551" y="219.2969"/><ellipse cx="1583.45" cy="234.2969" fill="#ADD1B2" rx="10" ry="10" style="stroke:#181818;stroke-width:1.0;"/><path d="M1585.2781,238.5469 Q1584.8719,238.75 1584.4188,238.8594 Q1583.9656,238.9688 1583.4813,238.9688 Q1581.7,238.9688 1580.7625,237.8125 Q1579.8406,236.6406 1579.8406,234.4375 Q1579.8406,232.2188 1580.7625,231.0625 Q1581.7,229.8906 1583.4813,229.8906 Q1583.9656,229.8906 1584.4188,230 Q1584.8875,230.0938 1585.2781,230.3125 L1585.2781,232.2344 Q1584.8406,231.8281 1584.4188,231.6406 Q1583.9969,231.4375 1583.5594,231.4375 Q1582.6063,231.4375 1582.1219,232.2031 Q1581.6375,232.9531 1581.6375,234.4375 Q1581.6375,235.9063 1582.1219,236.6563 Q1582.6063,237.4063 1583.5594,237.4063 Q1583.9969,237.4063 1584.4188,237.2188 Q1584.8406,237.0313 1585.2781,236.625 L1585.2781,238.5469 Z " fill="#000000"/><text fill="#000000" font-family="Arial" font-size="12" lengthAdjust="spacing" textLength="135" x="1600.55" y="238.4512">InternalResourceView</text><line style="stroke:#181818;stroke-width:0.5;" x1="1552" x2="1756" y1="249.2969" y2="249.2969"/><line style="stroke:#181818;stroke-width:0.5;" x1="1552" x2="1756" y1="257.2969" y2="257.2969"/><ellipse cx="1562" cy="269.7813" fill="#84BE84" rx="3" ry="3" style="stroke:#038048;stroke-width:1.0;"/><text fill="#000000" font-family="Arial" font-size="12" lengthAdjust="spacing" textLength="181" x="1570" y="272.4355">void render(...) // &#23454;&#29616;&#25509;&#21475;&#26041;&#27861;</text></g><g id="elem_DispatcherServlet"><rect codeLine="35" fill="#F1F1F1" height="73.9375" id="DispatcherServlet" rx="2.5" ry="2.5" style="stroke:#181818;stroke-width:0.5;" width="646" x="629" y="212.2969"/><ellipse cx="892.5" cy="227.2969" fill="#ADD1B2" rx="10" ry="10" style="stroke:#181818;stroke-width:1.0;"/><path d="M894.3281,231.5469 Q893.9219,231.75 893.4688,231.8594 Q893.0156,231.9688 892.5313,231.9688 Q890.75,231.9688 889.8125,230.8125 Q888.8906,229.6406 888.8906,227.4375 Q888.8906,225.2188 889.8125,224.0625 Q890.75,222.8906 892.5313,222.8906 Q893.0156,222.8906 893.4688,223 Q893.9375,223.0938 894.3281,223.3125 L894.3281,225.2344 Q893.8906,224.8281 893.4688,224.6406 Q893.0469,224.4375 892.6094,224.4375 Q891.6563,224.4375 891.1719,225.2031 Q890.6875,225.9531 890.6875,227.4375 Q890.6875,228.9063 891.1719,229.6563 Q891.6563,230.4063 892.6094,230.4063 Q893.0469,230.4063 893.4688,230.2188 Q893.8906,230.0313 894.3281,229.625 L894.3281,231.5469 Z " fill="#000000"/><text fill="#000000" font-family="Arial" font-size="12" lengthAdjust="spacing" textLength="111" x="911.5" y="231.4512">DispatcherServlet</text><line style="stroke:#181818;stroke-width:0.5;" x1="630" x2="1274" y1="242.2969" y2="242.2969"/><line style="stroke:#181818;stroke-width:0.5;" x1="630" x2="1274" y1="250.2969" y2="250.2969"/><ellipse cx="640" cy="262.7813" fill="#84BE84" rx="3" ry="3" style="stroke:#038048;stroke-width:1.0;"/><text fill="#000000" font-family="Arial" font-size="12" lengthAdjust="spacing" textLength="576" x="648" y="265.4355">ModelAndView handleRequest(HttpServletRequest request, HttpServletResponse response)</text><ellipse cx="640" cy="276.75" fill="#84BE84" rx="3" ry="3" style="stroke:#038048;stroke-width:1.0;"/><text fill="#000000" font-family="Arial" font-size="12" lengthAdjust="spacing" textLength="621" x="648" y="279.4043">void processView(ModelAndView mav, HttpServletRequest request, HttpServletResponse response)</text></g><g id="elem_UserController"><rect fill="#F1F1F1" height="46" id="UserController" rx="2.5" ry="2.5" style="stroke:#181818;stroke-width:0.5;" width="120" x="892" y="67.2969"/><ellipse cx="906" cy="82.2969" fill="#ADD1B2" rx="10" ry="10" style="stroke:#181818;stroke-width:1.0;"/><path d="M907.8281,86.5469 Q907.4219,86.75 906.9688,86.8594 Q906.5156,86.9688 906.0313,86.9688 Q904.25,86.9688 903.3125,85.8125 Q902.3906,84.6406 902.3906,82.4375 Q902.3906,80.2188 903.3125,79.0625 Q904.25,77.8906 906.0313,77.8906 Q906.5156,77.8906 906.9688,78 Q907.4375,78.0938 907.8281,78.3125 L907.8281,80.2344 Q907.3906,79.8281 906.9688,79.6406 Q906.5469,79.4375 906.1094,79.4375 Q905.1563,79.4375 904.6719,80.2031 Q904.1875,80.9531 904.1875,82.4375 Q904.1875,83.9063 904.6719,84.6563 Q905.1563,85.4063 906.1094,85.4063 Q906.5469,85.4063 906.9688,85.2188 Q907.3906,85.0313 907.8281,84.625 L907.8281,86.5469 Z " fill="#000000"/><text fill="#000000" font-family="Arial" font-size="12" lengthAdjust="spacing" textLength="90" x="919" y="86.4512">UserController</text><line style="stroke:#181818;stroke-width:0.5;" x1="893" x2="1011" y1="97.2969" y2="97.2969"/><line style="stroke:#181818;stroke-width:0.5;" x1="893" x2="1011" y1="105.2969" y2="105.2969"/></g><g id="elem_GMN18"><path d="M1047,43.2969 L1047,86.2969 L1012.26,90.2969 L1047,94.2969 L1047,137.1094 A0,0 0 0 0 1047,137.1094 L1367,137.1094 A0,0 0 0 0 1367,137.1094 L1367,53.2969 L1357,43.2969 L1047,43.2969 A0,0 0 0 0 1047,43.2969 " fill="#FEFFDD" style="stroke:#181818;stroke-width:0.5;"/><path d="M1357,43.2969 L1357,53.2969 L1367,53.2969 L1357,43.2969 " fill="#FEFFDD" style="stroke:#181818;stroke-width:0.5;"/><text fill="#000000" font-family="Arial" font-size="12" lengthAdjust="spacing" textLength="102" x="1151.5" y="59.4355">1. &#29992;&#25143;&#35831;&#27714; /login</text><text fill="#000000" font-family="Arial" font-size="12" lengthAdjust="spacing" textLength="179" x="1113" y="73.4043">2. DispatcherServlet &#25509;&#25910;&#35831;&#27714;</text><text fill="#000000" font-family="Arial" font-size="12" lengthAdjust="spacing" textLength="184" x="1110.5" y="87.373">3. &#25214;&#21040; UserController#login()</text><text fill="#000000" font-family="Arial" font-size="12" lengthAdjust="spacing" textLength="265" x="1070" y="101.3418">4. &#25191;&#34892;&#21518;&#36820;&#22238; ModelAndView("login", model)</text><text fill="#000000" font-family="Arial" font-size="12" lengthAdjust="spacing" textLength="299" x="1053" y="115.3105">5. &#35843;&#29992; ViewResolver &#35299;&#26512; "login" &#8594; &#24471;&#21040; View &#23545;&#35937;</text><text fill="#000000" font-family="Arial" font-size="12" lengthAdjust="spacing" textLength="268" x="1068.5" y="129.2793">6. &#35843;&#29992; View.render() &#28210;&#26579; HTML &#24182;&#21709;&#24212;&#27983;&#35272;&#22120;</text></g><g id="link_ThymeleafViewResolver_ViewResolver"><path codeLine="41" d="M456,279.3049 C456,303.1719 456,318.8562 456,342.8443 " fill="none" id="ThymeleafViewResolver-to-ViewResolver" style="stroke:#181818;stroke-width:1.0;stroke-dasharray:7.0,7.0;"/><polygon fill="none" points="456,360.8443,462,342.8443,450,342.8443,456,360.8443" style="stroke:#181818;stroke-width:1.0;"/><text fill="#000000" font-family="Arial" font-size="12" lengthAdjust="spacing" textLength="72" x="457" y="328.4355">implements</text></g><g id="link_InternalResourceViewResolver_ViewResolver"><path codeLine="42" d="M209.439,279.3049 C262.726,303.2929 321.6254,329.8068 374.9624,353.817 " fill="none" id="InternalResourceViewResolver-to-ViewResolver" style="stroke:#181818;stroke-width:1.0;stroke-dasharray:7.0,7.0;"/><polygon fill="none" points="391.376,361.2058,377.4253,348.3458,372.4995,359.2882,391.376,361.2058" style="stroke:#181818;stroke-width:1.0;"/><text fill="#000000" font-family="Arial" font-size="12" lengthAdjust="spacing" textLength="72" x="321" y="328.4355">implements</text></g><g id="link_ThymeleafView_View"><path codeLine="43" d="M1413,279.3049 C1413,303.1719 1413,318.8562 1413,342.8443 " fill="none" id="ThymeleafView-to-View" style="stroke:#181818;stroke-width:1.0;stroke-dasharray:7.0,7.0;"/><polygon fill="none" points="1413,360.8443,1419,342.8443,1407,342.8443,1413,360.8443" style="stroke:#181818;stroke-width:1.0;"/><text fill="#000000" font-family="Arial" font-size="12" lengthAdjust="spacing" textLength="72" x="1414" y="328.4355">implements</text></g><g id="link_InternalResourceView_View"><path codeLine="44" d="M1604.06,279.3049 C1562.84,303.2519 1520.1635,328.0392 1478.8535,352.0423 " fill="none" id="InternalResourceView-to-View" style="stroke:#181818;stroke-width:1.0;stroke-dasharray:7.0,7.0;"/><polygon fill="none" points="1463.29,361.0855,1481.8679,357.2302,1475.8391,346.8545,1463.29,361.0855" style="stroke:#181818;stroke-width:1.0;"/><text fill="#000000" font-family="Arial" font-size="12" lengthAdjust="spacing" textLength="72" x="1534" y="328.4355">implements</text></g><g id="link_DispatcherServlet_ViewResolver"><path codeLine="47" d="M824.268,286.3499 C741.889,309.6029 641.9244,337.8182 564.8984,359.5593 " fill="none" id="DispatcherServlet-to-ViewResolver" style="stroke:#181818;stroke-width:1.0;"/><polygon fill="#181818" points="559.124,361.1892,568.8722,362.594,563.936,359.831,566.699,354.8948,559.124,361.1892" style="stroke:#181818;stroke-width:1.0;"/><text fill="#000000" font-family="Arial" font-size="12" lengthAdjust="spacing" textLength="24" x="705" y="328.4355">&#20351;&#29992;</text></g><g id="link_DispatcherServlet_View"><path codeLine="48" d="M1070.72,286.3499 C1147.28,309.6029 1239.8189,337.7046 1311.4089,359.4457 " fill="none" id="DispatcherServlet-to-View" style="stroke:#181818;stroke-width:1.0;"/><polygon fill="#181818" points="1317.15,361.1892,1309.7007,354.7465,1312.3658,359.7363,1307.376,362.4013,1317.15,361.1892" style="stroke:#181818;stroke-width:1.0;"/><text fill="#000000" font-family="Arial" font-size="12" lengthAdjust="spacing" textLength="24" x="1211" y="328.4355">&#20351;&#29992;</text></g><g id="link_DispatcherServlet_UserController"><path codeLine="49" d="M983.9615,201.769 C989.3195,192.465 988.192,192.5679 991,182.2969 C997.663,157.9239 983.814,131.5369 970.814,113.4849 " fill="none" id="DispatcherServlet-backto-UserController" style="stroke:#181818;stroke-width:1.0;"/><polygon fill="none" points="977.973,212.1679,984.4336,208.9646,983.9615,201.769,977.501,204.9722,977.973,212.1679" style="stroke:#181818;stroke-width:1.0;"/><text fill="#000000" font-family="Arial" font-size="12" lengthAdjust="spacing" textLength="84" x="993" y="179.4355">&#35843;&#29992;&#22788;&#29702;&#22120;&#26041;&#27861;</text></g><g id="link_UserController_DispatcherServlet"><path codeLine="50" d="M908.354,113.3829 C881.576,130.1949 854.748,155.0309 868,182.2969 C873.513,193.6399 877.5544,199.6101 887.0814,208.1421 " fill="none" id="UserController-to-DispatcherServlet" style="stroke:#181818;stroke-width:1.0;stroke-dasharray:7.0,7.0;"/><polygon fill="#181818" points="891.551,212.1449,887.5151,203.1609,887.8263,208.8092,882.178,209.1204,891.551,212.1449" style="stroke:#181818;stroke-width:1.0;"/><text fill="#000000" font-family="Arial" font-size="12" lengthAdjust="spacing" textLength="113" x="869" y="179.4355">&#36820;&#22238;ModelAndView</text></g></g></svg>