<?xml version="1.0" encoding="us-ascii" standalone="no"?><svg xmlns="http://www.w3.org/2000/svg" xmlns:xlink="http://www.w3.org/1999/xlink" contentStyleType="text/css" height="708px" preserveAspectRatio="none" style="width:631px;height:708px;background:#FFFFFF;" version="1.1" viewBox="0 0 631 708" width="631px" zoomAndPan="magnify"><defs/><g><g id="elem_Map"><rect codeLine="2" fill="#F1F1F1" height="96.8906" id="Map" rx="2.5" ry="2.5" style="stroke:#181818;stroke-width:0.5;" width="171" x="38.5" y="605"/><ellipse cx="91.75" cy="621" fill="#B4A7E5" rx="11" ry="11" style="stroke:#181818;stroke-width:1.0;"/><path d="M87.6719,616.7656 L87.6719,614.6094 L95.0625,614.6094 L95.0625,616.7656 L92.5938,616.7656 L92.5938,624.8438 L95.0625,624.8438 L95.0625,627 L87.6719,627 L87.6719,624.8438 L90.1406,624.8438 L90.1406,616.7656 L87.6719,616.7656 Z " fill="#000000"/><text fill="#000000" font-family="sans-serif" font-size="14" font-style="italic" lengthAdjust="spacing" textLength="29" x="112.25" y="625.8467">Map</text><rect fill="#FFFFFF" height="15.9688" style="stroke:#181818;stroke-width:1.0;stroke-dasharray:2.0,2.0;" width="25" x="187.5" y="602"/><text fill="#000000" font-family="sans-serif" font-size="12" font-style="italic" lengthAdjust="spacing" textLength="23" x="188.5" y="614.1387">K, V</text><line style="stroke:#181818;stroke-width:0.5;" x1="39.5" x2="208.5" y1="637" y2="637"/><line style="stroke:#181818;stroke-width:0.5;" x1="39.5" x2="208.5" y1="645" y2="645"/><ellipse cx="49.5" cy="658.6484" fill="#84BE84" rx="3" ry="3" style="stroke:#038048;stroke-width:1.0;"/><text fill="#000000" font-family="sans-serif" font-size="14" lengthAdjust="spacing" textLength="145" x="58.5" y="661.9951">put(K key, V value): V</text><ellipse cx="49.5" cy="674.9453" fill="#84BE84" rx="3" ry="3" style="stroke:#038048;stroke-width:1.0;"/><text fill="#000000" font-family="sans-serif" font-size="14" lengthAdjust="spacing" textLength="124" x="58.5" y="678.292">get(Object key): V</text><ellipse cx="49.5" cy="691.2422" fill="#84BE84" rx="3" ry="3" style="stroke:#038048;stroke-width:1.0;"/><text fill="#000000" font-family="sans-serif" font-size="14" lengthAdjust="spacing" textLength="119" x="58.5" y="694.5889">... (&#20854;&#20182; Map &#26041;&#27861;)</text></g><g id="elem_LinkedHashMap"><rect codeLine="8" fill="#F1F1F1" height="64.2969" id="LinkedHashMap" rx="2.5" ry="2.5" style="stroke:#181818;stroke-width:0.5;" width="234" x="7" y="455.5"/><ellipse cx="51.75" cy="471.5" fill="#ADD1B2" rx="11" ry="11" style="stroke:#181818;stroke-width:1.0;"/><path d="M54.7188,477.1406 Q54.1406,477.4375 53.5,477.5781 Q52.8594,477.7344 52.1563,477.7344 Q49.6563,477.7344 48.3281,476.0938 Q47.0156,474.4375 47.0156,471.3125 Q47.0156,468.1875 48.3281,466.5313 Q49.6563,464.875 52.1563,464.875 Q52.8594,464.875 53.5,465.0313 Q54.1563,465.1875 54.7188,465.4844 L54.7188,468.2031 Q54.0938,467.625 53.5,467.3594 Q52.9063,467.0781 52.2813,467.0781 Q50.9375,467.0781 50.25,468.1563 Q49.5625,469.2188 49.5625,471.3125 Q49.5625,473.4063 50.25,474.4844 Q50.9375,475.5469 52.2813,475.5469 Q52.9063,475.5469 53.5,475.2813 Q54.0938,475 54.7188,474.4219 L54.7188,477.1406 Z " fill="#000000"/><text fill="#000000" font-family="sans-serif" font-size="14" lengthAdjust="spacing" textLength="109" x="72.25" y="476.3467">LinkedHashMap</text><rect fill="#FFFFFF" height="15.9688" style="stroke:#181818;stroke-width:1.0;stroke-dasharray:2.0,2.0;" width="25" x="219" y="452.5"/><text fill="#000000" font-family="sans-serif" font-size="12" font-style="italic" lengthAdjust="spacing" textLength="23" x="220" y="464.6387">K, V</text><line style="stroke:#181818;stroke-width:0.5;" x1="8" x2="240" y1="487.5" y2="487.5"/><text fill="#000000" font-family="sans-serif" font-size="14" lengthAdjust="spacing" textLength="222" x="13" y="504.4951">// &#32487;&#25215;&#33258; HashMap&#65292;&#20445;&#25345;&#25554;&#20837;&#39034;&#24207;</text><line style="stroke:#181818;stroke-width:0.5;" x1="8" x2="240" y1="511.7969" y2="511.7969"/></g><g id="elem_ModelMap"><rect codeLine="12" fill="#F1F1F1" height="80.5938" id="ModelMap" rx="2.5" ry="2.5" style="stroke:#181818;stroke-width:0.5;" width="377" x="179.5" y="289"/><ellipse cx="328.25" cy="305" fill="#ADD1B2" rx="11" ry="11" style="stroke:#181818;stroke-width:1.0;"/><path d="M331.2188,310.6406 Q330.6406,310.9375 330,311.0781 Q329.3594,311.2344 328.6563,311.2344 Q326.1563,311.2344 324.8281,309.5938 Q323.5156,307.9375 323.5156,304.8125 Q323.5156,301.6875 324.8281,300.0313 Q326.1563,298.375 328.6563,298.375 Q329.3594,298.375 330,298.5313 Q330.6563,298.6875 331.2188,298.9844 L331.2188,301.7031 Q330.5938,301.125 330,300.8594 Q329.4063,300.5781 328.7813,300.5781 Q327.4375,300.5781 326.75,301.6563 Q326.0625,302.7188 326.0625,304.8125 Q326.0625,306.9063 326.75,307.9844 Q327.4375,309.0469 328.7813,309.0469 Q329.4063,309.0469 330,308.7813 Q330.5938,308.5 331.2188,307.9219 L331.2188,310.6406 Z " fill="#000000"/><text fill="#000000" font-family="sans-serif" font-size="14" lengthAdjust="spacing" textLength="71" x="348.75" y="309.8467">ModelMap</text><line style="stroke:#181818;stroke-width:0.5;" x1="180.5" x2="555.5" y1="321" y2="321"/><line style="stroke:#181818;stroke-width:0.5;" x1="180.5" x2="555.5" y1="329" y2="329"/><ellipse cx="190.5" cy="342.6484" fill="#84BE84" rx="3" ry="3" style="stroke:#038048;stroke-width:1.0;"/><text fill="#000000" font-family="sans-serif" font-size="14" lengthAdjust="spacing" textLength="351" x="199.5" y="345.9951">addAttribute(String name, Object value): ModelMap</text><ellipse cx="190.5" cy="358.9453" fill="#84BE84" rx="3" ry="3" style="stroke:#038048;stroke-width:1.0;"/><text fill="#000000" font-family="sans-serif" font-size="14" lengthAdjust="spacing" textLength="82" x="199.5" y="362.292">... (&#20854;&#20182;&#26041;&#27861;)</text></g><g id="elem_Model"><rect codeLine="17" fill="#F1F1F1" height="80.5938" id="Model" rx="2.5" ry="2.5" style="stroke:#181818;stroke-width:0.5;" width="348" x="276" y="447"/><ellipse cx="424.75" cy="463" fill="#B4A7E5" rx="11" ry="11" style="stroke:#181818;stroke-width:1.0;"/><path d="M420.6719,458.7656 L420.6719,456.6094 L428.0625,456.6094 L428.0625,458.7656 L425.5938,458.7656 L425.5938,466.8438 L428.0625,466.8438 L428.0625,469 L420.6719,469 L420.6719,466.8438 L423.1406,466.8438 L423.1406,458.7656 L420.6719,458.7656 Z " fill="#000000"/><text fill="#000000" font-family="sans-serif" font-size="14" font-style="italic" lengthAdjust="spacing" textLength="42" x="445.25" y="467.8467">Model</text><line style="stroke:#181818;stroke-width:0.5;" x1="277" x2="623" y1="479" y2="479"/><line style="stroke:#181818;stroke-width:0.5;" x1="277" x2="623" y1="487" y2="487"/><ellipse cx="287" cy="500.6484" fill="#84BE84" rx="3" ry="3" style="stroke:#038048;stroke-width:1.0;"/><text fill="#000000" font-family="sans-serif" font-size="14" lengthAdjust="spacing" textLength="322" x="296" y="503.9951">addAttribute(String name, Object value): Model</text><ellipse cx="287" cy="516.9453" fill="#84BE84" rx="3" ry="3" style="stroke:#038048;stroke-width:1.0;"/><text fill="#000000" font-family="sans-serif" font-size="14" lengthAdjust="spacing" textLength="82" x="296" y="520.292">... (&#20854;&#20182;&#26041;&#27861;)</text></g><g id="elem_ExtendedModelMap"><rect codeLine="22" fill="#F1F1F1" height="64.2969" id="ExtendedModelMap" rx="2.5" ry="2.5" style="stroke:#181818;stroke-width:0.5;" width="269" x="233.5" y="148"/><ellipse cx="295.25" cy="164" fill="#ADD1B2" rx="11" ry="11" style="stroke:#181818;stroke-width:1.0;"/><path d="M298.2188,169.6406 Q297.6406,169.9375 297,170.0781 Q296.3594,170.2344 295.6563,170.2344 Q293.1563,170.2344 291.8281,168.5938 Q290.5156,166.9375 290.5156,163.8125 Q290.5156,160.6875 291.8281,159.0313 Q293.1563,157.375 295.6563,157.375 Q296.3594,157.375 297,157.5313 Q297.6563,157.6875 298.2188,157.9844 L298.2188,160.7031 Q297.5938,160.125 297,159.8594 Q296.4063,159.5781 295.7813,159.5781 Q294.4375,159.5781 293.75,160.6563 Q293.0625,161.7188 293.0625,163.8125 Q293.0625,165.9063 293.75,166.9844 Q294.4375,168.0469 295.7813,168.0469 Q296.4063,168.0469 297,167.7813 Q297.5938,167.5 298.2188,166.9219 L298.2188,169.6406 Z " fill="#000000"/><text fill="#000000" font-family="sans-serif" font-size="14" lengthAdjust="spacing" textLength="137" x="315.75" y="168.8467">ExtendedModelMap</text><line style="stroke:#181818;stroke-width:0.5;" x1="234.5" x2="501.5" y1="180" y2="180"/><text fill="#000000" font-family="sans-serif" font-size="14" lengthAdjust="spacing" textLength="257" x="239.5" y="196.9951">// &#22686;&#24378; ModelMap&#65292;&#25903;&#25345;&#25968;&#25454;&#32465;&#23450;&#19978;&#19979;&#25991;</text><line style="stroke:#181818;stroke-width:0.5;" x1="234.5" x2="501.5" y1="204.2969" y2="204.2969"/></g><g id="elem_BindingAwareModelMap"><rect codeLine="26" fill="#F1F1F1" height="64.2969" id="BindingAwareModelMap" rx="2.5" ry="2.5" style="stroke:#181818;stroke-width:0.5;" width="275" x="230.5" y="7"/><ellipse cx="281.25" cy="23" fill="#ADD1B2" rx="11" ry="11" style="stroke:#181818;stroke-width:1.0;"/><path d="M284.2188,28.6406 Q283.6406,28.9375 283,29.0781 Q282.3594,29.2344 281.6563,29.2344 Q279.1563,29.2344 277.8281,27.5938 Q276.5156,25.9375 276.5156,22.8125 Q276.5156,19.6875 277.8281,18.0313 Q279.1563,16.375 281.6563,16.375 Q282.3594,16.375 283,16.5313 Q283.6563,16.6875 284.2188,16.9844 L284.2188,19.7031 Q283.5938,19.125 283,18.8594 Q282.4063,18.5781 281.7813,18.5781 Q280.4375,18.5781 279.75,19.6563 Q279.0625,20.7188 279.0625,22.8125 Q279.0625,24.9063 279.75,25.9844 Q280.4375,27.0469 281.7813,27.0469 Q282.4063,27.0469 283,26.7813 Q283.5938,26.5 284.2188,25.9219 L284.2188,28.6406 Z " fill="#000000"/><text fill="#000000" font-family="sans-serif" font-size="14" lengthAdjust="spacing" textLength="165" x="301.75" y="27.8467">BindingAwareModelMap</text><line style="stroke:#181818;stroke-width:0.5;" x1="231.5" x2="504.5" y1="39" y2="39"/><text fill="#000000" font-family="sans-serif" font-size="14" lengthAdjust="spacing" textLength="263" x="236.5" y="55.9951">// &#22788;&#29702; @ModelAttribute &#32465;&#23450;&#21644;&#39564;&#35777;&#38169;&#35823;</text><line style="stroke:#181818;stroke-width:0.5;" x1="231.5" x2="504.5" y1="63.2969" y2="63.2969"/></g><g id="link_LinkedHashMap_Map"><path codeLine="31" d="M124,519.733 C124,543.804 124,559.496 124,586.9156 " fill="none" id="LinkedHashMap-to-Map" style="stroke:#181818;stroke-width:1.0;stroke-dasharray:7.0,7.0;"/><polygon fill="none" points="124,604.9156,130,586.9156,118,586.9156,124,604.9156" style="stroke:#181818;stroke-width:1.0;"/><text fill="#000000" font-family="sans-serif" font-size="13" lengthAdjust="spacing" textLength="76" x="125" y="571.0669">implements</text></g><g id="link_ModelMap_LinkedHashMap"><path codeLine="32" d="M306.113,370.067 C264.745,396.515 226.2494,421.1271 187.9134,445.6371 " fill="none" id="ModelMap-to-LinkedHashMap" style="stroke:#181818;stroke-width:1.0;"/><polygon fill="none" points="172.748,455.333,191.1454,450.6922,184.6814,440.5819,172.748,455.333" style="stroke:#181818;stroke-width:1.0;"/><text fill="#000000" font-family="sans-serif" font-size="13" lengthAdjust="spacing" textLength="51" x="255" y="413.0669">extends</text></g><g id="link_ModelMap_Model"><path codeLine="33" d="M388.904,370.269 C401.241,393.74 408.4292,407.4129 420.7592,430.8709 " fill="none" id="ModelMap-to-Model" style="stroke:#181818;stroke-width:1.0;stroke-dasharray:7.0,7.0;"/><polygon fill="none" points="429.134,446.804,426.0703,428.0793,415.4482,433.6625,429.134,446.804" style="stroke:#181818;stroke-width:1.0;"/><text fill="#000000" font-family="sans-serif" font-size="13" lengthAdjust="spacing" textLength="76" x="412" y="413.0669">implements</text></g><g id="link_ExtendedModelMap_ModelMap"><path codeLine="34" d="M368,212.281 C368,234.606 368,246.808 368,270.827 " fill="none" id="ExtendedModelMap-to-ModelMap" style="stroke:#181818;stroke-width:1.0;"/><polygon fill="none" points="368,288.827,374,270.827,362,270.827,368,288.827" style="stroke:#181818;stroke-width:1.0;"/><text fill="#000000" font-family="sans-serif" font-size="13" lengthAdjust="spacing" textLength="51" x="369" y="255.0669">extends</text></g><g id="link_BindingAwareModelMap_ExtendedModelMap"><path codeLine="35" d="M368,71.194 C368,94.087 368,107.042 368,129.91 " fill="none" id="BindingAwareModelMap-to-ExtendedModelMap" style="stroke:#181818;stroke-width:1.0;"/><polygon fill="none" points="368,147.91,374,129.91,362,129.91,368,147.91" style="stroke:#181818;stroke-width:1.0;"/><text fill="#000000" font-family="sans-serif" font-size="13" lengthAdjust="spacing" textLength="51" x="369" y="114.0669">extends</text></g></g></svg>